<svg t="1588211159294" class="icon" viewBox="0 0 1179 1024" version="1.1" xmlns="http://www.w3.org/2000/svg" p-id="19862" xmlns:xlink="http://www.w3.org/1999/xlink" width="294.75" height="256">
  <path d="M88.818495 119.439326a4.443969 4.443969 0 0 1 3.652577 1.278402c1.278402 1.521907 2.861185 23.437369 8.583556 29.464121s28.916234 2.61768 28.916234 10.409844c0 6.087628-21.550204 6.939896-28.855358 12.966648s-3.10469 31.290409-12.175256 30.438141c-7.000772-0.730515-2.13067-20.819688-10.714226-28.916234s-29.46412-6.513762-29.46412-13.818916 21.367575-2.861185 28.672729-11.201236 4.322216-30.62077 11.383864-30.62077z" fill="#EEEEEE" p-id="19863"></path>
  <path d="M24.046131 375.728473a2.556804 2.556804 0 0 1 2.191547 0.791392c0.852268 0.974021 1.765412 14.184174 5.23536 17.775874s17.471493 1.582783 17.471493 6.087628c0 3.713453-13.027524 4.139587-17.471493 7.792165s-1.826288 19.115153-7.244278 18.506389c-4.26134-0.48701-1.278402-12.60139-6.452886-17.471493S0 405.25347 0 400.870378s12.844895-1.704536 17.471493-6.757268 2.313299-18.384637 6.574638-18.384637z" fill="#B1AFAE" p-id="19864"></path>
  <path d="M1151.231368 251.236477a3.043814 3.043814 0 0 1 2.495928 0.913144c0.913144 1.034897 1.948041 16.071338 6.087628 20.210925s19.845668 1.765412 19.845668 7.122525c0 4.322216-14.792937 4.74835-19.845668 8.887938s-2.13067 21.428451-8.218298 20.819688c-4.809226-0.48701-1.461031-14.305926-7.36603-19.845668s-20.210926-4.504845-20.210926-9.4967 14.671184-1.948041 19.663039-7.670411 2.678556-20.941441 7.548659-20.941441z" fill="#EEEEEE" p-id="19865"></path>
  <path d="M930.615723 58.076034a3.043814 3.043814 0 0 1 2.495927 0.913144c0.913144 1.034897 2.008917 16.071338 6.087628 20.210926s19.845668 1.765412 19.845668 7.122525c0 4.26134-14.792937 4.74835-19.784791 8.887937s-2.556804 21.428451-8.644432 21.002317c-4.74835-0.547887-1.400154-14.305926-7.305154-19.845668s-20.210926-4.504845-20.210926-9.4967 14.671184-1.948041 19.663039-7.670411 2.861185-21.12407 7.853041-21.12407z" fill="#B1AFAE" p-id="19866"></path>
  <path d="M299.876565 23.376553A23.437369 23.437369 0 1 0 323.253057 0.000061a23.376492 23.376492 0 0 0-23.376492 23.376492z m762.110174 342.429086a14.671184 14.671184 0 1 0 14.73206-14.610307 14.610308 14.610308 0 0 0-14.73206 14.610307zM89.427258 546.790826a477.087422 477.087422 0 0 0 954.113968 0 477.087422 477.087422 0 0 0-954.113968 0z" fill="#EEEEEE" p-id="19867"></path>
  <path d="M876.13145 714.200601a35.673501 35.673501 0 0 1-35.917006 35.429996l-549.834579-0.913144a35.612625 35.612625 0 0 1-35.490872-35.917006l2.61768-350.282127a35.734378 35.734378 0 0 1 35.977882-35.429996h449.145209c36.525769 32.629687 84.070145 78.713033 135.510604 122.543956l-2.008918 264.385692z" fill="#FDFDFD" p-id="19868"></path>
  <path d="M879.90578 440.500837a12.175256 12.175256 0 0 1-12.662267 12.175257l-117.5521-2.739433a12.175256 12.175256 0 0 1-12.175257-12.723143l2.374175-100.080608a12.175256 12.175256 0 0 1 12.662267-12.175256z" fill="#D8D8D8" p-id="19869"></path>
  <path d="M587.395245 692.28514a112.621122 112.621122 0 1 0 225.242243 0 112.621122 112.621122 0 0 0-225.242243 0z" fill="#EEEEEE" p-id="19870"></path>
  <path d="M619.416169 650.645763c-5.052731-3.348196 1.095773-12.844895 6.087628-18.262885s9.374947-7.305154 13.514535-6.087628c2.922062 0.791392 6.818144 7.244278 0 12.844895s-10.957731 17.227988-19.602163 11.505618z m-6.574638 12.175256a6.087628 6.087628 0 1 0 6.087628-6.087628 6.087628 6.087628 0 0 0-6.087628 5.844123z" fill="#D8D8D8" p-id="19871"></path>
  <path d="M668.84771 424.977385a11.749122 11.749122 0 0 1-11.749122 11.809999H341.333313a11.809999 11.809999 0 0 1 0-23.559121h315.704398a11.749122 11.749122 0 0 1 11.809999 11.749122z m-179.219774 84.009269a11.809999 11.809999 0 0 1-11.809999 11.809999H341.333313a11.809999 11.809999 0 0 1 0-23.619997h136.484624a11.809999 11.809999 0 0 1 11.809999 11.809998z m0 84.00927a11.809999 11.809999 0 0 1-11.809999 11.809998H341.333313a11.809999 11.809999 0 1 1 0-23.619997h136.484624a11.809999 11.809999 0 0 1 11.809999 11.809999z m359.170064 224.085594a11.62737 11.62737 0 0 0-16.37572-1.461031l-18.262885-21.976338a152.495086 152.495086 0 1 0-28.611852 25.38541l17.714998 21.124069a11.62737 11.62737 0 0 0-1.461031 16.37572l56.49319 67.329168a488.227781 488.227781 0 0 0 46.083345-40.787109l-55.397417-66.050766z m-149.512149-11.62737a112.621122 112.621122 0 0 1 0-225.242244 112.621122 112.621122 0 0 1 0 225.242244z" fill="#D8D8D8" p-id="19872"></path>
</svg>